<?xml version="1.0" standalone="no"?>
<!DOCTYPE svg PUBLIC "-//W3C//DTD SVG 20010904//EN"
 "http://www.w3.org/TR/2001/REC-SVG-20010904/DTD/svg10.dtd">
<svg version="1.0" xmlns="http://www.w3.org/2000/svg"
 width="64.000000pt" height="64.000000pt" viewBox="0 0 64.000000 64.000000"
 preserveAspectRatio="xMidYMid meet">

<g transform="translate(0.000000,64.000000) scale(0.100000,-0.100000)"
fill="#000000" stroke="none">
<path d="M255 626 c-56 -26 -95 -85 -95 -145 0 -25 -3 -27 -30 -23 -36 5 -40
22 -5 22 14 0 25 5 25 10 0 6 -11 10 -25 10 -23 0 -25 3 -25 50 0 49 -1 50
-30 50 -17 0 -39 -9 -50 -20 -19 -19 -20 -33 -20 -270 0 -237 1 -251 20 -270
19 -19 33 -20 300 -20 267 0 281 1 300 20 19 19 20 33 20 270 0 237 -1 251
-20 270 -11 11 -33 20 -50 20 -29 0 -30 -1 -30 -50 0 -47 -2 -50 -25 -50 -14
0 -25 -4 -25 -10 0 -5 11 -10 25 -10 14 0 25 -4 25 -10 0 -5 -11 -10 -25 -10
-14 0 -25 -4 -25 -10 0 -5 5 -10 10 -10 6 0 10 -18 10 -40 0 -28 -4 -40 -15
-40 -8 0 -19 -8 -24 -19 -6 -11 -24 -20 -46 -23 -31 -4 -33 -2 -22 13 6 9 27
36 45 60 31 40 33 49 30 97 -7 85 -63 142 -145 149 -28 2 -61 -2 -78 -11z
m-175 -265 l0 -219 -30 -4 -30 -5 0 212 c0 218 3 235 42 235 17 0 18 -15 18
-219z m528 207 c9 -9 12 -72 12 -223 l0 -212 -30 5 -30 4 0 219 c0 204 1 219
18 219 10 0 23 -5 30 -12z m-459 -155 c10 -19 9 -23 -4 -23 -10 0 -15 9 -15
27 0 29 2 29 19 -4z m75 -105 c9 -12 16 -34 16 -48 0 -14 5 -31 12 -38 9 -9 8
-12 -5 -12 -9 0 -21 9 -27 20 -8 15 -21 20 -50 20 -39 0 -40 1 -40 34 0 32 3
35 33 39 17 2 35 5 39 5 4 1 14 -8 22 -20z m229 -56 c53 -3 57 -5 57 -27 0
-21 -5 -24 -42 -27 -40 -3 -43 -5 -43 -33 0 -27 4 -30 32 -33 20 -2 37 -11 43
-22 6 -12 24 -20 48 -23 20 -2 -63 -4 -185 -5 -148 -1 -223 -6 -223 -13 0 -7
77 -9 239 -7 191 2 237 0 229 -9 -8 -10 -78 -13 -288 -13 -234 0 -279 2 -290
15 -11 13 -8 14 19 9 20 -4 31 -3 31 5 0 6 -5 11 -11 11 -5 0 -7 5 -4 10 3 6
19 10 36 10 22 0 29 5 29 20 0 17 8 19 83 22 l82 3 0 33 c0 27 4 32 22 32 31
0 63 34 64 68 l1 27 7 -25 c6 -22 13 -25 64 -28z"/>
<path d="M100 70 c0 -5 5 -10 10 -10 6 0 10 5 10 10 0 6 -4 10 -10 10 -5 0
-10 -4 -10 -10z"/>
</g>
</svg>
